<svg height="512pt" viewBox="0 -57 512 512" width="512pt" xmlns="http://www.w3.org/2000/svg"><path d="m0 0h512v398.03125h-512zm0 0" fill="#83e46f"/><path d="m256 0h256v398.03125h-256zm0 0" fill="#00b763"/><path d="m0 0h512v111.550781h-512zm0 0" fill="#39689f"/><path d="m45.167969 32.828125h29.667969v29.667969h-29.667969zm0 0" fill="#fff"/><path d="m97.167969 32.828125h29.667969v29.667969h-29.667969zm0 0" fill="#fff"/><path d="m160.800781 309.4375-59.363281-64.441406 59.363281-64.441406 22.066407 20.324218-40.640626 44.117188 40.640626 44.117187zm0 0" fill="#fd4a4a"/><path d="m351.199219 309.4375-22.066407-20.324219 40.640626-44.117187-40.640626-44.117188 22.066407-20.324218 59.363281 64.441406zm0 0" fill="#e70b6a"/><path d="m315.410156 179.550781-59.410156 93.398438-34.089844 53.601562-25.320312-16.101562 59.410156-93.398438 34.089844-53.601562zm0 0" fill="#fd4a4a"/><path d="m290.089844 163.449219 25.320312 16.101562-59.410156 93.398438v-55.898438zm0 0" fill="#e70b6a"/><path d="m256 0h256v111.550781h-256zm0 0" fill="#224370"/></svg>