<svg height="511pt" viewBox="0 -42 511.98369 511" width="511pt" xmlns="http://www.w3.org/2000/svg"><path d="m98.894531 6.53125 12.003907 206.054688-12.003907 210.949218h-98.894531v-417.003906zm0 0" fill="#fd4a4a"/><path d="m197.789062 6.53125 15.003907 208.117188-15.003907 208.886718h-98.894531v-417.003906zm0 0" fill="#83e46f"/><path d="m148.339844 6.53125h49.449218v417.003906h-49.449218zm0 0" fill="#00b763"/><path d="m49.445312 6.53125h49.449219v417.003906h-49.449219zm0 0" fill="#e70b6a"/><path d="m0 71.011719h98.894531v30.011719h-98.894531zm0 0" fill="#f9c4b9"/><path d="m0 329.050781h98.894531v30.011719h-98.894531zm0 0" fill="#f9c4b9"/><path d="m98.894531 139.386719h98.894531v145.691406h-98.894531zm0 0" fill="#ddebf0"/><path d="m49.445312 71.011719h49.449219v30.011719h-49.449219zm0 0" fill="#ffb19f"/><path d="m49.445312 329.050781h49.449219v30.011719h-49.449219zm0 0" fill="#ffb19f"/><path d="m197.789062 6.53125h98.894532v417.003906h-98.894532zm0 0" fill="#fd4a4a"/><path d="m247.234375 6.53125h49.449219v417.003906h-49.449219zm0 0" fill="#e70b6a"/><path d="m197.789062 71.011719h98.894532v30.011719h-98.894532zm0 0" fill="#f9c4b9"/><path d="m197.789062 329.050781h98.894532v30.011719h-98.894532zm0 0" fill="#f9c4b9"/><path d="m247.234375 71.011719h49.449219v30.011719h-49.449219zm0 0" fill="#ffb19f"/><path d="m247.234375 329.050781h49.449219v30.011719h-49.449219zm0 0" fill="#ffb19f"/><path d="m296.640625 29.113281 94.660156-28.621093 120.683594 399.15625-94.664063 28.621093zm0 0" fill="#ff9f01"/><path d="m343.972656 14.800781 47.328125-14.308593 120.683594 399.15625-47.332031 14.3125zm0 0" fill="#f87f02"/><path d="m315.300781 90.832031 94.664063-28.617187 8.683594 28.722656-94.660157 28.621094zm0 0" fill="#f9c4b9"/><path d="m389.980469 337.832031 94.660156-28.621093 8.683594 28.726562-94.660157 28.621094zm0 0" fill="#f9c4b9"/><path d="m362.632812 76.523438 47.332032-14.308594 8.683594 28.726562-47.332032 14.308594zm0 0" fill="#ffb19f"/><path d="m437.308594 323.523438 47.332031-14.3125 8.6875 28.726562-47.332031 14.308594zm0 0" fill="#ffb19f"/><path d="m148.339844 139.386719h49.449218v145.691406h-49.449218zm0 0" fill="#c4d2dc"/></svg>