<svg height="512pt" viewBox="0 -59 512 511" width="512pt" xmlns="http://www.w3.org/2000/svg"><g fill="#ffd92d"><path d="m106.007812 324.417969h109.679688v30.003906h-109.679688zm0 0"/><path d="m55.503906 263.15625h109.878906v30h-109.878906zm0 0"/><path d="m69.574219 201.890625h81.734375v30.003906h-81.734375zm0 0"/><path d="m48.503906 324.417969h33.167969v30.003906h-33.167969zm0 0"/><path d="m0 263.15625h33.167969v30h-33.167969zm0 0"/></g><path d="m395.492188 196.652344 116.507812 67.261718-5.480469 12.34375c-31.472656 70.800782-101.855469 116.546876-179.308593 116.546876-1.902344 0-3.800782-.03125-5.683594-.082032-105.554688-3.019531-190.480469-89.816406-190.480469-196.070312 0-106.257813 84.925781-193.050782 190.480469-196.074219 1.882812-.046875 3.78125-.078125 5.683594-.078125 77.453124 0 147.835937 45.742188 179.308593 116.546875l5.480469 12.339844zm0 0" fill="#ff9f01"/><path d="m395.492188 196.652344 116.507812 67.261718-5.480469 12.34375c-31.472656 70.800782-101.855469 116.546876-179.308593 116.546876-1.902344 0-3.800782-.03125-5.683594-.082032v-392.144531c1.882812-.046875 3.78125-.078125 5.683594-.078125 77.453124 0 147.835937 45.742188 179.308593 116.546875l5.480469 12.339844zm0 0" fill="#f87f02"/><path d="m367.355469 78.3125h30.332031v30.332031h-30.332031zm0 0" fill="#f9c4b9"/></svg>